<?xml version="1.0" encoding="utf-8"?>
<!-- Generator: Adobe Illustrator 19.2.0, SVG Export Plug-In . SVG Version: 6.00 Build 0)  -->
<svg version="1.1" id="Layer_1" xmlns="http://www.w3.org/2000/svg" xmlns:xlink="http://www.w3.org/1999/xlink" x="0px" y="0px"
	 viewBox="0 0 100 100" style="enable-background:new 0 0 100 100;" xml:space="preserve">
<metadata><?xpacket begin="﻿" id="W5M0MpCehiHzreSzNTczkc9d"?>
<x:xmpmeta xmlns:x="adobe:ns:meta/" x:xmptk="Adobe XMP Core 5.6-c111 79.158366, 2015/09/25-01:12:00        ">
   <rdf:RDF xmlns:rdf="http://www.w3.org/1999/02/22-rdf-syntax-ns#">
      <rdf:Description rdf:about=""/>
   </rdf:RDF>
</x:xmpmeta>
                                                                                                    
                                                                                                    
                                                                                                    
                                                                                                    
                                                                                                    
                                                                                                    
                                                                                                    
                                                                                                    
                                                                                                    
                                                                                                    
                                                                                                    
                                                                                                    
                                                                                                    
                                                                                                    
                                                                                                    
                                                                                                    
                                                                                                    
                                                                                                    
                                                                                                    
                                                                                                    
                           
<?xpacket end="w"?></metadata>
<style type="text/css">
	.st0{fill:#FFFFFF;}
</style>
<path d="M-457.3,587l-4.4-4.4c-1-1-2.6-1-3.5,0l-1.5,1.5c-12-8.6-28.4-8.4-40.2,0.4c-0.1,0.1-0.2,0.2-0.3,0.3l-0.1-0.1l15.6-15.6
	c1,0.7,2.1,1.1,3.4,1.1c1.6,0,3-0.6,4.1-1.7c1.1-1.1,1.7-2.6,1.7-4.1c0-1.6-0.6-3-1.7-4.1c-2.3-2.3-6-2.3-8.3,0
	c-1.1,1.1-1.7,2.6-1.7,4.1c0,1.2,0.4,2.4,1.1,3.4l-15.6,15.6l-1.5-1.5c-1-1-2.6-1-3.5,0l-4.4,4.4c-1,1-1,2.6,0,3.5l1.5,1.5
	l-15.6,15.6c-2.3-1.6-5.5-1.4-7.5,0.6c-2.3,2.3-2.3,6,0,8.3c1.1,1.1,2.6,1.7,4.1,1.7s3-0.6,4.1-1.7c2-2,2.2-5.2,0.6-7.5l15.6-15.6
	l0.1,0.1c-0.1,0.1-0.3,0.2-0.3,0.3c-8.9,11.8-9,28.2-0.4,40.2l-1.6,1.6c-0.5,0.5-0.7,1.1-0.7,1.8s0.3,1.3,0.7,1.8l4.4,4.4
	c0.5,0.5,1.1,0.7,1.8,0.7s1.3-0.2,1.8-0.7l4.4-4.4c1-1,1-2.6,0-3.5l-4.4-4.4c-1-1-2.6-1-3.5,0l-1.3,1.3c-7.9-11.2-7.7-26.5,0.6-37.6
	c0,0,0-0.1,0.1-0.2l0.1,0.1c0.5,0.5,1.1,0.7,1.8,0.7s1.3-0.2,1.8-0.7l4.4-4.4c0.5-0.5,0.7-1.1,0.7-1.8s-0.3-1.3-0.7-1.8l-0.1-0.1
	c0.1,0,0.1,0,0.2-0.1c11-8.3,26.3-8.4,37.6-0.6l-1.5,1.5c-1,1-1,2.6,0,3.5l4.4,4.4c0.5,0.5,1.1,0.7,1.8,0.7s1.3-0.2,1.8-0.7l4.4-4.4
	C-456.3,589.6-456.3,588-457.3,587z M-491,561.6c0.8-0.8,1.7-1.1,2.7-1.1s2,0.4,2.7,1.1c0.7,0.7,1.1,1.7,1.1,2.7s-0.4,2-1.1,2.7
	c-1.5,1.5-4,1.5-5.5,0c-0.7-0.7-1.1-1.7-1.1-2.7C-492.1,563.3-491.7,562.3-491,561.6z M-532.9,614.4c-1.5,1.5-4,1.5-5.5,0
	s-1.5-4,0-5.5s4-1.5,5.5,0C-531.4,610.5-531.4,612.9-532.9,614.4z M-511.6,631.9c0.1-0.1,0.2-0.1,0.4-0.1s0.3,0,0.4,0.1l4.4,4.4
	c0.2,0.2,0.2,0.5,0,0.7l-4.4,4.4c-0.2,0.2-0.5,0.2-0.7,0l-4.4-4.4c-0.1-0.1-0.1-0.3-0.1-0.4c0-0.1,0-0.2,0.1-0.4L-511.6,631.9z
	 M-507.2,588.4l-4.4,4.4c-0.2,0.2-0.5,0.2-0.7,0l-4.4-4.4c-0.2-0.2-0.2-0.5,0-0.7l4.4-4.4c0.1-0.1,0.2-0.1,0.4-0.1s0.3,0,0.4,0.1
	l4.4,4.4c0.1,0.1,0.1,0.3,0.1,0.4C-507,588.1-507,588.2-507.2,588.4z M-458.7,589.1l-4.4,4.4c-0.2,0.2-0.5,0.2-0.7,0l-4.4-4.4
	c-0.2-0.2-0.2-0.5,0-0.7l4.4-4.4c0.1-0.1,0.2-0.1,0.4-0.1c0.1,0,0.3,0,0.4,0.1l4.4,4.4C-458.5,588.6-458.5,588.9-458.7,589.1z"/>
<path class="st0" d="M28.1,28.1h43.9v43.9H28.1V28.1z M23.7,76.3h52.6V23.7H23.7V76.3z"/>
<path class="st0" d="M75.2,79.6c-0.6,0-1.1,0.5-1.1,1.1v6.6c0,0.6,0.5,1.1,1.1,1.1s1.1-0.5,1.1-1.1v-6.6
	C76.3,80.1,75.8,79.6,75.2,79.6z"/>
<path class="st0" d="M87.3,74.1h-6.6c-0.6,0-1.1,0.5-1.1,1.1s0.5,1.1,1.1,1.1h6.6c0.6,0,1.1-0.5,1.1-1.1S87.9,74.1,87.3,74.1z"/>
<path class="st0" d="M24.8,20.4c0.6,0,1.1-0.5,1.1-1.1v-6.6c0-0.6-0.5-1.1-1.1-1.1s-1.1,0.5-1.1,1.1v6.6
	C23.7,19.9,24.2,20.4,24.8,20.4z"/>
<path class="st0" d="M19.3,23.7h-6.6c-0.6,0-1.1,0.5-1.1,1.1s0.5,1.1,1.1,1.1h6.6c0.6,0,1.1-0.5,1.1-1.1S19.9,23.7,19.3,23.7z"/>
<path class="st0" d="M19.3,74.1h-6.6c-0.6,0-1.1,0.5-1.1,1.1s0.5,1.1,1.1,1.1h6.6c0.6,0,1.1-0.5,1.1-1.1S19.9,74.1,19.3,74.1z"/>
<path class="st0" d="M24.8,79.6c-0.6,0-1.1,0.5-1.1,1.1v6.6c0,0.6,0.5,1.1,1.1,1.1s1.1-0.5,1.1-1.1v-6.6
	C25.9,80.1,25.4,79.6,24.8,79.6z"/>
<path class="st0" d="M80.7,25.9h6.6c0.6,0,1.1-0.5,1.1-1.1s-0.5-1.1-1.1-1.1h-6.6c-0.6,0-1.1,0.5-1.1,1.1S80.1,25.9,80.7,25.9z"/>
<path class="st0" d="M75.2,11.6c-0.6,0-1.1,0.5-1.1,1.1v6.6c0,0.6,0.5,1.1,1.1,1.1s1.1-0.5,1.1-1.1v-6.6
	C76.3,12.1,75.8,11.6,75.2,11.6z"/>
</svg>
