<?xml version="1.0" encoding="utf-8"?>
<!-- Generator: Adobe Illustrator 19.2.0, SVG Export Plug-In . SVG Version: 6.00 Build 0)  -->
<svg version="1.1" id="Layer_1" xmlns="http://www.w3.org/2000/svg" xmlns:xlink="http://www.w3.org/1999/xlink" x="0px" y="0px"
	 viewBox="0 0 100 100" style="enable-background:new 0 0 100 100;" xml:space="preserve">
<metadata><?xpacket begin="﻿" id="W5M0MpCehiHzreSzNTczkc9d"?>
<x:xmpmeta xmlns:x="adobe:ns:meta/" x:xmptk="Adobe XMP Core 5.6-c111 79.158366, 2015/09/25-01:12:00        ">
   <rdf:RDF xmlns:rdf="http://www.w3.org/1999/02/22-rdf-syntax-ns#">
      <rdf:Description rdf:about=""/>
   </rdf:RDF>
</x:xmpmeta>
                                                                                                    
                                                                                                    
                                                                                                    
                                                                                                    
                                                                                                    
                                                                                                    
                                                                                                    
                                                                                                    
                                                                                                    
                                                                                                    
                                                                                                    
                                                                                                    
                                                                                                    
                                                                                                    
                                                                                                    
                                                                                                    
                                                                                                    
                                                                                                    
                                                                                                    
                                                                                                    
                           
<?xpacket end="w"?></metadata>
<style type="text/css">
	.st0{fill:#FFFFFF;}
</style>
<g>
	<g>
		<path class="st0" d="M93.8,39.3H74.8V13.8c0-0.6-0.5-1.2-1.2-1.2H21.1c-0.6,0-1.2,0.5-1.2,1.2v39H6.2c-0.6,0-1.2,0.5-1.2,1.2v32.3
			c0,0.6,0.5,1.2,1.2,1.2h87.7c0.6,0,1.2-0.5,1.2-1.2V40.4C95,39.8,94.5,39.3,93.8,39.3z M22.2,14.9h50.2v24.4H39.5l0.6-0.6
			c0.5-0.5,0.5-1.2,0-1.6s-1.2-0.5-1.6,0l-2.3,2.3h-2.2c-0.6,0-1.2,0.5-1.2,1.2v1l-1.5-1.5c-0.5-0.5-1.2-0.5-1.6,0
			c-0.5,0.5-0.5,1.2,0,1.6l2.9,2.9c0.1,0.1,0.1,0.1,0.2,0.2v8.2H22.2V14.9z M43.6,85.1H7.3v-2.2l8-8l4.1,4.1
			c0.2,0.2,0.5,0.3,0.8,0.3s0.6-0.1,0.8-0.3l12.7-12.7l9.9,9.9V85.1z M43.6,73l-9.1-9.1c-0.5-0.5-1.2-0.5-1.6,0L20.2,76.6l-4.1-4.1
			c-0.4-0.4-1.2-0.4-1.6,0l-7.1,7.1V55.1h36.3V73z M92.7,85.1H45.9V53.9c0-0.6-0.5-1.2-1.2-1.2h-9.5v-2h57.4V85.1z M92.7,48.5H35.3
			v-6.9h57.4C92.7,41.6,92.7,48.5,92.7,48.5z"/>
	</g>
	<g>
		<path class="st0" d="M17.5,68.9c-2.6,0-4.8-2.2-4.8-4.8s2.2-4.8,4.8-4.8s4.8,2.2,4.8,4.8C22.3,66.8,20.1,68.9,17.5,68.9z
			 M17.5,61.6c-1.4,0-2.5,1.1-2.5,2.5c0,1.4,1.1,2.5,2.5,2.5s2.5-1.1,2.5-2.5C20,62.7,18.8,61.6,17.5,61.6z"/>
	</g>
</g>
<g>
	<g>
		<g>
			<path class="st0" d="M33.5,32.2c-0.3,0-0.6-0.1-0.8-0.3L29.8,29c-0.5-0.5-0.5-1.2,0-1.6s1.2-0.5,1.6,0l2.1,2.1l5-5
				c0.5-0.5,1.2-0.5,1.6,0c0.5,0.5,0.5,1.2,0,1.6l-5.8,5.8C34.1,32.1,33.9,32.2,33.5,32.2z"/>
		</g>
		<g>
			<path class="st0" d="M64,29.3H46.5c-0.6,0-1.2-0.5-1.2-1.2c0-0.6,0.5-1.2,1.2-1.2H64c0.6,0,1.2,0.5,1.2,1.2
				C65.2,28.8,64.6,29.3,64,29.3z"/>
		</g>
	</g>
</g>
<g>
	<g>
		<path class="st0" d="M60,76.5c-0.2,0-0.4,0-0.5-0.1c-0.4-0.2-0.6-0.6-0.6-1V61.1c0-0.4,0.2-0.8,0.6-1c0.4-0.2,0.8-0.2,1.2,0.1
			l10.4,7.1c0.3,0.2,0.5,0.6,0.5,1s-0.2,0.7-0.5,1l-10.4,7.1C60.5,76.5,60.3,76.5,60,76.5z M61.2,63.3v9.9l7.2-4.9L61.2,63.3z"/>
	</g>
	<g>
		<circle class="st0" cx="39.3" cy="45" r="1.7"/>
	</g>
	<g>
		<circle class="st0" cx="44.5" cy="45" r="1.7"/>
	</g>
	<g>
		<circle class="st0" cx="49.6" cy="45" r="1.7"/>
	</g>
</g>
</svg>
