<svg xmlns="http://www.w3.org/2000/svg" viewBox="0 0 362.59 77.87"><defs><style>.cls-1{fill:#231f20;}.cls-2{fill:#3d95d2;}</style></defs><g id="Layer_2" data-name="Layer 2"><g id="Layer_1-2" data-name="Layer 1"><path class="cls-1" d="M0,0H37.52C54.38,0,63.59,11.35,63.59,24.94S54.38,49.55,37.52,49.55H19.32V74.94H0ZM34.94,16.29H19.32V33.14H34.94c5.17,0,9-3.25,9-8.31S40.11,16.29,34.94,16.29Z"/><path class="cls-1" d="M107.39,49.55H97.5V74.94H78.18V0H115.7c16.63,0,26.07,11,26.07,24.94,0,13-8,20-14.94,22.47l15.28,27.53H120Zm5.39-33.26H97.5V33.14h15.28c5.06,0,9.33-3.25,9.33-8.42S117.84,16.29,112.78,16.29Z"/><path class="cls-1" d="M209.22,63.59H178.1l-3.82,11.35h-21L181.47,0h24.27l28.31,74.94H213ZM183.15,47.3h21L193.6,16.85Z"/><path class="cls-1" d="M271,46.74,266,53V74.94H246.63V0H266V30.78L289,0H312.8L283.7,35.05l30.67,39.89h-23.7Z"/><circle class="cls-2" cx="343.27" cy="58.56" r="19.32"/></g></g></svg>